# xmcd
# Track frame offsets:
# 150
# 14369
# 31524
# 47486
# 61863
# 79385
# 96851
# 108727
# 125216
# 138687
# 155077
# 171598
# 185452
#
# Disc length: 2643 seconds
# Revision: 0
# Processed by: cddbd v1.4PL0 Copyright (c) Steve Scherf et al.
# Submitted via: VisiTrax 2.9.5.180 - For more info visit www.synapsa.com
#
DISCID=b70a510d
DTITLE=Brandi Ward - Window to my soul
DYEAR=1900
DGENRE=
TTITLE0=Crash helmet
TTITLE1=Can't get enough of it
TTITLE2=She knows
TTITLE3=Give this fool a kiss
TTITLE4=Terms of my surrender
TTITLE5=That's what love can be
TTITLE6=It's time you met my mother
TTITLE7=The fire
TTITLE8=Girl thang
TTITLE9=Window to my soul
TTITLE10=In the line of fire
TTITLE11=Puttin' on a show
TTITLE12=Country girl is gonna rock and roll
EXTD=
EXTT0=
EXTT1=
EXTT2=
EXTT3=
EXTT4=
EXTT5=
EXTT6=
EXTT7=
EXTT8=
EXTT9=
EXTT10=
EXTT11=
EXTT12=
PLAYORDER=
